<mxfile host="app.diagrams.net" agent="Mozilla/5.0 (Windows NT 10.0; Win64; x64) AppleWebKit/537.36 (KHTML, like Gecko) Chrome/131.0.0.0 Safari/537.36" version="25.0.3">
  <diagram name="Página-1" id="0d7h8Y_baKdkDav5c62c">
    <mxGraphModel dx="3294" dy="1754" grid="1" gridSize="10" guides="1" tooltips="1" connect="1" arrows="1" fold="1" page="1" pageScale="1" pageWidth="827" pageHeight="1169" math="0" shadow="0">
      <root>
        <mxCell id="0" />
        <mxCell id="1" parent="0" />
        <mxCell id="fTWFSywxl4EHCqVi2h3n-3" value="&lt;p style=&quot;margin:0px;margin-top:4px;text-align:center;&quot;&gt;&lt;b&gt;AlertService&lt;/b&gt;&lt;/p&gt;&lt;hr size=&quot;1&quot; style=&quot;border-style:solid;&quot;&gt;&lt;p style=&quot;margin:0px;margin-left:4px;&quot;&gt;&lt;i&gt;&lt;font color=&quot;#5e5e5e&quot;&gt;&amp;nbsp;// Classe que provê &lt;b&gt;alertas &lt;/b&gt;para o &lt;b&gt;LSM&lt;/b&gt;.&amp;nbsp;&lt;/font&gt;&lt;/i&gt;&lt;/p&gt;&lt;p style=&quot;margin:0px;margin-left:4px;&quot;&gt;&lt;i&gt;&lt;font color=&quot;#5e5e5e&quot;&gt;&amp;nbsp;// Possui diferentes métodos que criam os diferentes alertas.&lt;/font&gt;&lt;/i&gt;&lt;/p&gt;&lt;p style=&quot;margin:0px;margin-left:4px;&quot;&gt;&lt;i&gt;&lt;font color=&quot;#5e5e5e&quot;&gt;&lt;br&gt;&lt;/font&gt;&lt;/i&gt;&lt;/p&gt;&lt;p style=&quot;margin:0px;margin-left:4px;&quot;&gt;&lt;i&gt;&lt;font color=&quot;#5e5e5e&quot;&gt;&amp;nbsp;// Para mais informações, visite: &lt;b&gt;AlertService&lt;/b&gt;&lt;/font&gt;&lt;/i&gt;&lt;/p&gt;&lt;p style=&quot;margin:0px;margin-left:4px;&quot;&gt;&lt;br&gt;&lt;/p&gt;" style="verticalAlign=top;align=left;overflow=fill;html=1;whiteSpace=wrap;" vertex="1" parent="1">
          <mxGeometry x="1520" y="60" width="350" height="90" as="geometry" />
        </mxCell>
        <mxCell id="fTWFSywxl4EHCqVi2h3n-4" style="edgeStyle=orthogonalEdgeStyle;rounded=1;orthogonalLoop=1;jettySize=auto;html=1;entryX=0;entryY=0.5;entryDx=0;entryDy=0;strokeWidth=4;endArrow=diamond;endFill=1;curved=0;exitX=1;exitY=0.138;exitDx=0;exitDy=0;exitPerimeter=0;" edge="1" parent="1" source="3iLDCGa5zcX96UVFniNh-2" target="fTWFSywxl4EHCqVi2h3n-3">
          <mxGeometry relative="1" as="geometry" />
        </mxCell>
        <mxCell id="fTWFSywxl4EHCqVi2h3n-8" style="edgeStyle=orthogonalEdgeStyle;rounded=1;orthogonalLoop=1;jettySize=auto;html=1;entryX=0;entryY=0.5;entryDx=0;entryDy=0;strokeWidth=3;endArrow=block;endFill=0;curved=0;" edge="1" parent="1" source="fTWFSywxl4EHCqVi2h3n-5" target="fTWFSywxl4EHCqVi2h3n-7">
          <mxGeometry relative="1" as="geometry" />
        </mxCell>
        <mxCell id="fTWFSywxl4EHCqVi2h3n-5" value="&lt;p style=&quot;margin:0px;margin-top:4px;text-align:center;&quot;&gt;&lt;i&gt;&amp;lt;&amp;lt;Interface&amp;gt;&amp;gt;&lt;/i&gt;&lt;br&gt;&lt;b&gt;FileRepository&lt;/b&gt;&lt;/p&gt;&lt;hr size=&quot;1&quot; style=&quot;border-style:solid;&quot;&gt;&lt;p style=&quot;margin:0px;margin-left:4px;&quot;&gt;+ findAllByServiceOrderId(id: int): List&amp;lt;File&amp;gt;&lt;/p&gt;&lt;p style=&quot;margin:0px;margin-left:4px;&quot;&gt;&amp;nbsp;&lt;span style=&quot;background-color: initial; color: rgb(94, 94, 94); font-style: italic;&quot;&gt;// Vai fazer uma consulta que busca todos os documentos da coleção &lt;b&gt;File&amp;nbsp;&lt;/b&gt;&lt;/span&gt;&lt;span style=&quot;background-color: initial; color: rgb(94, 94, 94); font-style: italic;&quot;&gt;pelo campo &lt;b&gt;Id&amp;nbsp;&lt;/b&gt;&lt;/span&gt;&lt;span style=&quot;background-color: initial; color: rgb(94, 94, 94); font-style: italic;&quot;&gt;que seja igual ao valor fornecido em&amp;nbsp;&lt;/span&gt;&lt;span style=&quot;background-color: initial; font-weight: bold; color: rgb(94, 94, 94); font-style: italic;&quot;&gt;id&lt;/span&gt;&lt;/p&gt;&lt;p style=&quot;margin:0px;margin-left:4px;&quot;&gt;&lt;br&gt;&lt;/p&gt;&lt;p style=&quot;margin:0px;margin-left:4px;&quot;&gt;+ findAllByServiceOrderIdWithoutUrl(id: int): List&amp;lt;File&amp;gt;&lt;/p&gt;&lt;p style=&quot;margin:0px;margin-left:4px;&quot;&gt;&lt;br&gt;&lt;/p&gt;&lt;p style=&quot;margin:0px;margin-left:4px;&quot;&gt;&lt;i&gt;&lt;span style=&quot;color: rgb(94, 94, 94);&quot;&gt;&amp;nbsp;// O&amp;nbsp;&lt;/span&gt;&lt;span style=&quot;font-weight: bold; color: rgb(94, 94, 94);&quot;&gt;Spring Data MongoDB&lt;/span&gt;&lt;span style=&quot;color: rgb(94, 94, 94);&quot;&gt;&amp;nbsp;vai gerar a implementação dos métodos de forma automática pelo nome do método&lt;/span&gt;&lt;/i&gt;&lt;/p&gt;" style="verticalAlign=top;align=left;overflow=fill;html=1;whiteSpace=wrap;" vertex="1" parent="1">
          <mxGeometry x="1520" y="210" width="430" height="170" as="geometry" />
        </mxCell>
        <mxCell id="fTWFSywxl4EHCqVi2h3n-6" style="edgeStyle=orthogonalEdgeStyle;rounded=1;orthogonalLoop=1;jettySize=auto;html=1;entryX=0;entryY=0.5;entryDx=0;entryDy=0;strokeWidth=3;endArrow=block;endFill=0;curved=0;exitX=1;exitY=0.066;exitDx=0;exitDy=0;exitPerimeter=0;" edge="1" parent="1" source="3iLDCGa5zcX96UVFniNh-4" target="fTWFSywxl4EHCqVi2h3n-5">
          <mxGeometry relative="1" as="geometry" />
        </mxCell>
        <mxCell id="fTWFSywxl4EHCqVi2h3n-7" value="&lt;p style=&quot;margin:0px;margin-top:4px;text-align:center;&quot;&gt;&lt;i&gt;&amp;lt;&amp;lt;Interface&amp;gt;&amp;gt;&lt;/i&gt;&lt;br&gt;&lt;b&gt;MongoRepository &amp;lt;File, String&amp;gt;&lt;/b&gt;&lt;/p&gt;&lt;hr size=&quot;1&quot; style=&quot;border-style:solid;&quot;&gt;&lt;p style=&quot;margin:0px;margin-left:4px;&quot;&gt;&lt;i&gt;&lt;font color=&quot;#5e5e5e&quot;&gt;//&amp;nbsp;&lt;span style=&quot;font-weight: bold;&quot;&gt;Interface&lt;/span&gt;&amp;nbsp;do&amp;nbsp;&lt;span style=&quot;font-weight: bold;&quot;&gt;Spring Data MongoDB&lt;/span&gt;&amp;nbsp;que fornece operações de&amp;nbsp;&lt;span style=&quot;font-weight: bold;&quot;&gt;CRUD&lt;/span&gt;&amp;nbsp;para a entidade&amp;nbsp;&lt;span style=&quot;font-weight: bold;&quot;&gt;File&lt;/span&gt;&lt;/font&gt;&lt;/i&gt;&lt;/p&gt;" style="verticalAlign=top;align=left;overflow=fill;html=1;whiteSpace=wrap;" vertex="1" parent="1">
          <mxGeometry x="2010" y="210" width="430" height="110" as="geometry" />
        </mxCell>
        <mxCell id="fTWFSywxl4EHCqVi2h3n-9" value="&lt;p style=&quot;margin:0px;margin-top:4px;text-align:center;&quot;&gt;&lt;b&gt;ApplicationProperties&lt;/b&gt;&lt;/p&gt;&lt;hr size=&quot;1&quot; style=&quot;border-style:solid;&quot;&gt;&lt;p style=&quot;margin:0px;margin-left:4px;&quot;&gt;&lt;font color=&quot;#5e5e5e&quot;&gt;&lt;i&gt;&amp;nbsp;// ApplicationProperties é uma Classe que gerencia algumas configurações do LSM. Então algumas coisas, como a quantidade máxima de filtros permitidos em uma requisição para o WS, ficam salvas nela.&lt;/i&gt;&lt;/font&gt;&lt;/p&gt;&lt;p style=&quot;margin:0px;margin-left:4px;&quot;&gt;&lt;font color=&quot;#5e5e5e&quot;&gt;&lt;i&gt;&lt;br&gt;&lt;/i&gt;&lt;/font&gt;&lt;/p&gt;&lt;p style=&quot;margin:0px;margin-left:4px;&quot;&gt;&lt;font color=&quot;#5e5e5e&quot;&gt;&lt;i&gt;// Para mais informações, visite: &lt;b&gt;AplicationProperties&lt;/b&gt;&lt;/i&gt;&lt;/font&gt;&lt;/p&gt;" style="verticalAlign=top;align=left;overflow=fill;html=1;whiteSpace=wrap;" vertex="1" parent="1">
          <mxGeometry x="1520" y="470" width="430" height="110" as="geometry" />
        </mxCell>
        <mxCell id="fTWFSywxl4EHCqVi2h3n-10" style="edgeStyle=orthogonalEdgeStyle;rounded=0;orthogonalLoop=1;jettySize=auto;html=1;entryX=0;entryY=0.5;entryDx=0;entryDy=0;strokeWidth=3;endArrow=diamond;endFill=1;exitX=1;exitY=0.293;exitDx=0;exitDy=0;exitPerimeter=0;" edge="1" parent="1" source="3iLDCGa5zcX96UVFniNh-4" target="fTWFSywxl4EHCqVi2h3n-9">
          <mxGeometry relative="1" as="geometry">
            <mxPoint x="1360" y="525" as="sourcePoint" />
          </mxGeometry>
        </mxCell>
        <mxCell id="3iLDCGa5zcX96UVFniNh-1" value="SimUtil" style="swimlane;fontStyle=1;align=center;verticalAlign=top;childLayout=stackLayout;horizontal=1;startSize=26;horizontalStack=0;resizeParent=1;resizeParentMax=0;resizeLast=0;collapsible=1;marginBottom=0;whiteSpace=wrap;html=1;" parent="1" vertex="1">
          <mxGeometry x="330" y="60" width="1020" height="1180" as="geometry" />
        </mxCell>
        <mxCell id="3iLDCGa5zcX96UVFniNh-2" value="- alertService: AlertService&lt;div&gt;- fileRepository: FileRepository&lt;/div&gt;&lt;div&gt;- applicationProperties: ApplicationProperties&lt;/div&gt;&lt;div&gt;- alertUtil: AlertUtil&lt;/div&gt;&lt;div&gt;&lt;br&gt;&lt;/div&gt;&lt;div&gt;&lt;u&gt;- OPERADOR_ID_OI: int&lt;/u&gt;&lt;/div&gt;" style="text;strokeColor=none;fillColor=none;align=left;verticalAlign=top;spacingLeft=4;spacingRight=4;overflow=hidden;rotatable=0;points=[[0,0.5],[1,0.5]];portConstraint=eastwest;whiteSpace=wrap;html=1;" parent="3iLDCGa5zcX96UVFniNh-1" vertex="1">
          <mxGeometry y="26" width="1020" height="134" as="geometry" />
        </mxCell>
        <mxCell id="3iLDCGa5zcX96UVFniNh-3" value="" style="line;strokeWidth=1;fillColor=none;align=left;verticalAlign=middle;spacingTop=-1;spacingLeft=3;spacingRight=3;rotatable=0;labelPosition=right;points=[];portConstraint=eastwest;strokeColor=inherit;" parent="3iLDCGa5zcX96UVFniNh-1" vertex="1">
          <mxGeometry y="160" width="1020" height="8" as="geometry" />
        </mxCell>
        <mxCell id="3iLDCGa5zcX96UVFniNh-4" value="&lt;div&gt;&lt;font color=&quot;#5e5e5e&quot;&gt;&amp;nbsp;// Construtor da Classe&lt;/font&gt;&lt;/div&gt;+ SimUtil( alertService: AlertService, fileRepository: FileRepository, applicationProperties: ApplicationProperties, alertUtil: AlertUtil)&lt;div&gt;&lt;br&gt;&lt;/div&gt;&lt;div&gt;&lt;font color=&quot;#5e5e5e&quot;&gt;&amp;nbsp;// Métodos que validam informações dos Sims desde o tipo de atributo usando no selection até a fase&lt;br&gt;&lt;/font&gt;&lt;div&gt;+ isICCIDAttribute (typeOfSelection: String): boolean&lt;/div&gt;&lt;div&gt;+ isTheSimSameOperator (serviceOrder: ServiceOrder, sim: Sim): boolean&lt;/div&gt;&lt;div&gt;+ isTheSimInLinkedPhase (sim: Sim): boolean&lt;/div&gt;&lt;div&gt;+ isTheSimInReleasedPhase (sim: Sim): boolean&lt;/div&gt;&lt;div&gt;+ isTheSimInWaitingForTestPhase(sim: Sim): boolean&lt;/div&gt;&lt;div&gt;+ isTheSimInQuarantineReplacedPhase (sim: Sim): boolean&lt;/div&gt;&lt;div&gt;+ isTheSimInQuarantineReplacedPhase (sim: Sim): boolean&lt;/div&gt;&lt;div&gt;+ isTheSimInQuarentineCanceledPhase (sim: Sim): boolean&lt;/div&gt;&lt;div&gt;+ isTheSimInWaitingForSuspensionPhase (sim: Sim): boolean&lt;/div&gt;&lt;div&gt;+ isTheSimInSuspendedPhase (sim: Sim): boolean&lt;/div&gt;&lt;div&gt;+ isTheSimInWaitingForReplacementPhase (sim: Sim): boolean&lt;/div&gt;&lt;div&gt;+ isTheSimInReplacedPhase (sim: Sim): boolean&lt;/div&gt;&lt;div&gt;+ isTheSimInAdvancedInventoryPhase (sim: Sim): boolean&lt;/div&gt;&lt;div&gt;+ isTheSimInWaitingForActivationAdvancedInventoryPhase (sim: Sim): boolean&lt;/div&gt;&lt;div&gt;+ isTheSimInWaitingForCancelAdvancedInventoryPhase (sim: Sim): boolean&lt;/div&gt;&lt;div&gt;+ isTheSimInReadedPhase (sim: Sim): boolean&lt;/div&gt;&lt;div&gt;+ isTheSimInCanceledPhase (sim: Sim): boolean&lt;/div&gt;&lt;div&gt;+ isTheSimInPurgedPhase (sim: Sim): boolean&lt;/div&gt;&lt;div&gt;+ isTheSimTested (sim: Sim): boolean&lt;/div&gt;&lt;div&gt;+ isTheSimSameCustomer (serviceOrder: ServiceOrder, sim: Sim): boolean)&lt;/div&gt;&lt;div&gt;+ isTheSimSamePurchasePlan (serviceOrder: ServiceOrder, sim: Sim): boolean&lt;/div&gt;&lt;div&gt;+ isTheSimSameSellPlan (serviceOrder: ServiceOrder, sim: Sim): boolean&lt;/div&gt;&lt;div&gt;+ isTheSimNotRegisterd (sim: Sim): boolean&lt;/div&gt;&lt;div&gt;+ isTheSimInBlockedByExcessConsumeStatus (sim: Sim): boolean&lt;/div&gt;&lt;div&gt;+ isTheSimInBlockedByCustomer (sim: Sim): boolean&lt;/div&gt;&lt;div&gt;+ isTheSimInAdministrativeBlockStatus (sim: Sim): boolean&lt;/div&gt;&lt;div&gt;+ isValidICCID (iccid: String, operadoraId: int): boolean&lt;/div&gt;&lt;div&gt;+ isValidMSISDN (msisdn: String, operadoraId: int): boolean&lt;/div&gt;&lt;div&gt;&lt;br&gt;&lt;/div&gt;&lt;div&gt;&lt;font color=&quot;#5e5e5e&quot;&gt;&amp;nbsp;// Separa os Sims que estão de acordo com os critérios e os retorna&lt;/font&gt;&lt;/div&gt;&lt;div&gt;+ getOnlySimsRegistered (simpleValidatedSims: SimpleValidatedSims, serviceOrderId: int): SimpleValidatedSims&lt;/div&gt;&lt;div&gt;&lt;/div&gt;+ getOnlySimsRegisteredAdvancedInventorySend (simpleValidatedSims: SimpleValidatedSims, serviceOrderId: int): SimpleValidatedSims&lt;div&gt;+ getValidatedSimsByIccid (simpleValidatedSims: SimpleValidatedSims, serviceOrderId: int, file: File): SimpleValidatedSims&lt;/div&gt;&lt;div&gt;&lt;/div&gt;+ getValidatedSims (simpleValidatedSims: SimpleValidatedSims, serviceOrderId: int, file: File): SimpleValidatedSims&lt;div&gt;&lt;br&gt;&lt;/div&gt;&lt;div&gt;&lt;i&gt;&lt;font color=&quot;#5e5e5e&quot;&gt;&amp;nbsp;// Funções que retornam se o sim é ICCID, MSISDN ou se a quantidade de linhas atual é diferente da nova.&amp;nbsp;&lt;/font&gt;&lt;/i&gt;&lt;/div&gt;&lt;div&gt;+ isICCID (iccid: String): boolean&lt;/div&gt;&lt;div&gt;+ isMSISDN (msisdn: String): boolean&lt;/div&gt;&lt;div&gt;+ isDifferentQuantityCurrentAndNewLines (currentQuantity: int, newQuantity: int): boolean&lt;/div&gt;&lt;div&gt;&lt;br&gt;&lt;/div&gt;&lt;div&gt;&lt;font color=&quot;#5e5e5e&quot;&gt;&lt;i&gt;&amp;nbsp;// Organiza a lista de sims e retorna ela de acordo com os parâmetros&lt;/i&gt;&lt;/font&gt;&lt;/div&gt;&lt;div&gt;+ getSimsInOrderBySelection (selectionIdentifiers: List&amp;lt;String&amp;gt;, selectionSims: List&amp;lt;Sim&amp;gt;, isICCIDAttribute: boolean): List&amp;lt;Sim&amp;gt;&lt;/div&gt;&lt;div&gt;+ getSimsIdentifiersInOrderBySelection (selectionIdentifiers: List&amp;lt;String&amp;gt;, identifiers: List&amp;lt;String&amp;gt;): List&amp;lt;String&amp;gt;&lt;/div&gt;&lt;div&gt;&lt;br&gt;&lt;/div&gt;&lt;div&gt;&lt;i&gt;&lt;font color=&quot;#5e5e5e&quot;&gt;&amp;nbsp;//&amp;nbsp; Verifica se a lista tem mais de um sim (referente à arquivos de importação)&lt;/font&gt;&lt;/i&gt;&lt;/div&gt;&lt;div&gt;+ hasMoreThanOneICCIDAndMSISDNInFile (serviceOrderId: Int, sims: List&amp;lt;Sim&amp;gt;, fileName: String): boolean&lt;/div&gt;&lt;div&gt;&lt;br&gt;&lt;/div&gt;&lt;div&gt;&lt;font color=&quot;#5e5e5e&quot;&gt;&lt;i&gt;&amp;nbsp;// Gera alerta para o &lt;b&gt;LSM&lt;/b&gt;&lt;/i&gt;&lt;/font&gt;&lt;/div&gt;&lt;div&gt;+ createAlertMSISDNAlreadyExists (serviceOrderId: int, msisdn: String, fileName: String)&lt;/div&gt;&lt;div&gt;+ createAlertrICCIDAlreadyExists (serviceOrderId: int, iccid: String, fileName: String)&lt;/div&gt;&lt;div&gt;&lt;br&gt;&lt;/div&gt;&lt;div&gt;&lt;i&gt;&lt;font color=&quot;#5e5e5e&quot;&gt;&amp;nbsp;// Retorna duas listas com os Sims novos e os atuais&lt;/font&gt;&lt;/i&gt;&lt;/div&gt;&lt;div&gt;+ loadDoubleLineSelection (isICCIDAttribute, simsCurrentToSearch: List&amp;lt;String&amp;gt;, simsNewtoSearch: List&amp;lt;String&amp;gt;, deoubleLineSelection: DoubleLineSelection): DoubleLineSelection&lt;/div&gt;&lt;div&gt;+ loadDoubleLineAssociated (simsCurrent: List&amp;lt;Sim&amp;gt;, simsNew: List&amp;lt;Sim&amp;gt;, associatedSims: List&amp;lt;Sim&amp;gt;): DoubleLineSelection&lt;/div&gt;&lt;div&gt;&lt;br&gt;&lt;/div&gt;&lt;div&gt;+ removeAlreadyModifiedSims (List&amp;lt;Sim&amp;gt; sims, serviceOrder: ServiceOrder, isICCIDAttribute)&lt;/div&gt;&lt;div&gt;&lt;br&gt;&lt;/div&gt;&lt;div&gt;+ getListOfIdentificator (typeOfSelection: String, sims: List&amp;lt;Sim&amp;gt;): List&amp;lt;String&amp;gt;&lt;/div&gt;&lt;div&gt;&lt;br&gt;&lt;/div&gt;&lt;div&gt;&lt;i&gt;&lt;font color=&quot;#5e5e5e&quot;&gt;&amp;nbsp;// Verifica se o Sim está numa fase válida e se a operadora do sim é a mesma da ordem de serviço&lt;/font&gt;&lt;/i&gt;&lt;/div&gt;&lt;div&gt;+ isValidSim (serviceOrder: ServiceOrder, sim: Sim, isICCIDAttribute: boolean, isAssociationValidation: boolean): boolean&lt;/div&gt;&lt;div&gt;+ isValidPhase (serviceOrder: ServiceOrder, sim: Sim, isICCIDAttirubute: boolean, isAssiciationValidation: boolean): boolean&lt;/div&gt;&lt;div&gt;&lt;br&gt;&lt;/div&gt;&lt;/div&gt;" style="text;strokeColor=none;fillColor=none;align=left;verticalAlign=top;spacingLeft=4;spacingRight=4;overflow=hidden;rotatable=0;points=[[0,0.5],[1,0.5]];portConstraint=eastwest;whiteSpace=wrap;html=1;" parent="3iLDCGa5zcX96UVFniNh-1" vertex="1">
          <mxGeometry y="168" width="1020" height="1012" as="geometry" />
        </mxCell>
        <mxCell id="fTWFSywxl4EHCqVi2h3n-11" style="edgeStyle=orthogonalEdgeStyle;rounded=0;orthogonalLoop=1;jettySize=auto;html=1;exitX=1;exitY=0.5;exitDx=0;exitDy=0;" edge="1" parent="3iLDCGa5zcX96UVFniNh-1" source="3iLDCGa5zcX96UVFniNh-2" target="3iLDCGa5zcX96UVFniNh-2">
          <mxGeometry relative="1" as="geometry" />
        </mxCell>
        <mxCell id="fTWFSywxl4EHCqVi2h3n-12" value="&lt;p style=&quot;margin:0px;margin-top:4px;text-align:center;&quot;&gt;&lt;b&gt;AlertUtil&lt;/b&gt;&lt;/p&gt;&lt;hr size=&quot;1&quot; style=&quot;border-style:solid;&quot;&gt;&lt;p style=&quot;margin:0px;margin-left:4px;&quot;&gt;&lt;font color=&quot;#5e5e5e&quot;&gt;&amp;nbsp;&lt;i&gt;// Essa Classe fornece funções para criar alertas, mas de forma mais fácil.&lt;/i&gt;&lt;/font&gt;&lt;/p&gt;&lt;p style=&quot;margin:0px;margin-left:4px;&quot;&gt;&lt;i&gt;&lt;font color=&quot;#5e5e5e&quot;&gt;&lt;br&gt;&lt;/font&gt;&lt;/i&gt;&lt;/p&gt;&lt;p style=&quot;margin:0px;margin-left:4px;&quot;&gt;&lt;i&gt;&lt;font color=&quot;#5e5e5e&quot;&gt;&amp;nbsp;// Ela utiliza algumas condicionais para facilitar validar algumas coisas dos alertas e simplificar o código.&lt;/font&gt;&lt;/i&gt;&lt;/p&gt;&lt;p style=&quot;margin:0px;margin-left:4px;&quot;&gt;&lt;i&gt;&lt;font color=&quot;#5e5e5e&quot;&gt;&lt;br&gt;&lt;/font&gt;&lt;/i&gt;&lt;/p&gt;&lt;p style=&quot;margin:0px;margin-left:4px;&quot;&gt;&lt;i&gt;&lt;font color=&quot;#5e5e5e&quot;&gt;&amp;nbsp;// Para mais informações, visite: &lt;a href=&quot;https://app.diagrams.net/#HGiovanniMendesC%2Fdiagrama-classes-LSM%2Fmain%2FAlertUtil.drawio#%7B%22pageId%22%3A%22fKPe8ztSodnws2ul9CdE%22%7D&quot;&gt;AlertUtil&lt;/a&gt;&lt;/font&gt;&lt;/i&gt;&lt;/p&gt;" style="verticalAlign=top;align=left;overflow=fill;html=1;whiteSpace=wrap;" vertex="1" parent="1">
          <mxGeometry x="1520" y="650" width="430" height="130" as="geometry" />
        </mxCell>
        <mxCell id="fTWFSywxl4EHCqVi2h3n-13" style="edgeStyle=orthogonalEdgeStyle;rounded=0;orthogonalLoop=1;jettySize=auto;html=1;entryX=0;entryY=0.5;entryDx=0;entryDy=0;exitX=1;exitY=0.482;exitDx=0;exitDy=0;exitPerimeter=0;strokeWidth=3;endArrow=diamond;endFill=1;" edge="1" parent="1" source="3iLDCGa5zcX96UVFniNh-4" target="fTWFSywxl4EHCqVi2h3n-12">
          <mxGeometry relative="1" as="geometry" />
        </mxCell>
      </root>
    </mxGraphModel>
  </diagram>
</mxfile>
